<?xml version="1.0" encoding="UTF-8" standalone="no"?>
<!-- Created with Inkscape (http://www.inkscape.org/) -->

<svg
   version="1.1"
   id="svg2"
   width="174.66522"
   height="43.808155"
   viewBox="0 0 174.66522 43.808155"
   sodipodi:docname="vaaniy-logo.svg"
   inkscape:version="1.2.2 (b0a8486541, 2022-12-01)"
   xml:space="preserve"
   inkscape:export-filename="Vaaniy.png"
   inkscape:export-xdpi="288"
   inkscape:export-ydpi="288"
   xmlns:inkscape="http://www.inkscape.org/namespaces/inkscape"
   xmlns:sodipodi="http://sodipodi.sourceforge.net/DTD/sodipodi-0.dtd"
   xmlns="http://www.w3.org/2000/svg"
   xmlns:svg="http://www.w3.org/2000/svg"><defs
     id="defs6"><linearGradient
       id="linearGradient1108"
       inkscape:swatch="solid"><stop
         style="stop-color:#ffffff;stop-opacity:1;"
         offset="0"
         id="stop1106" /></linearGradient><inkscape:path-effect
       effect="spiro"
       id="path-effect3616"
       is_visible="true"
       lpeversion="1" /><inkscape:path-effect
       effect="spiro"
       id="path-effect3612"
       is_visible="true"
       lpeversion="1" /><inkscape:path-effect
       effect="spiro"
       id="path-effect350"
       is_visible="true"
       lpeversion="1" /></defs><sodipodi:namedview
     id="namedview4"
     pagecolor="#ffffff"
     bordercolor="#000000"
     borderopacity="0.25"
     inkscape:showpageshadow="2"
     inkscape:pageopacity="0.0"
     inkscape:pagecheckerboard="0"
     inkscape:deskcolor="#d1d1d1"
     showgrid="false"
     inkscape:zoom="2.284141"
     inkscape:cx="45.969141"
     inkscape:cy="27.581485"
     inkscape:window-width="1366"
     inkscape:window-height="737"
     inkscape:window-x="0"
     inkscape:window-y="0"
     inkscape:window-maximized="1"
     inkscape:current-layer="layer2" /><g
     inkscape:groupmode="layer"
     id="layer1"
     inkscape:label="Image 1"
     sodipodi:insensitive="true"
     style="display:none"
     transform="translate(-2.906811,-54.095923)"><path
       style="fill:#cf0000;fill-opacity:1;stroke-width:0.9"
       d="M 0,0 180,152"
       id="path348"
       inkscape:path-effect="#path-effect350"
       inkscape:original-d="M 0,0 C 60.001,50.667667 120.001,101.33433 180,152" /><path
       style="fill:none;fill-opacity:1;stroke:#000000;stroke-width:0.9;stroke-opacity:1"
       d="M 0,0 180,152"
       id="path3610"
       inkscape:path-effect="#path-effect3612"
       inkscape:original-d="M 0,0 C 60.001,50.667667 120.001,101.33433 180,152" /><path
       style="fill:#77216f;fill-opacity:1;stroke:#000000;stroke-width:0.9;stroke-opacity:1"
       d="M 180,0 0,152"
       id="path3614"
       inkscape:path-effect="#path-effect3616"
       inkscape:original-d="M 180,0 C 120.001,50.667667 60.001,101.33433 0,152" /></g><g
     inkscape:groupmode="layer"
     id="layer2"
     inkscape:label="Image 2"
     style="display:inline"
     transform="translate(-2.906811,-54.095923)"><g
       id="g2306"><path
         id="path1104"
         style="fill:#77216f;fill-opacity:1;stroke:none;stroke-width:0.763762;stroke-dasharray:none;stroke-opacity:1"
         d="m 32.99975,56.145241 a 18.290759,9.4758374 22.5 0 1 0.684932,0.813009 18.290759,9.4758374 22.5 0 1 1.030224,1.598425 18.290759,9.4758374 22.5 0 1 0.701821,1.575137 18.290759,9.4758374 22.5 0 1 0.357575,1.51905 18.290759,9.4758374 22.5 0 1 0.0066,1.432882 18.290759,9.4758374 22.5 0 1 -0.343721,1.317199 18.290759,9.4758374 22.5 0 1 -0.688342,1.174438 18.290759,9.4758374 22.5 0 1 -1.017889,1.008523 18.290759,9.4758374 22.5 0 1 -1.326973,0.821284 18.290759,9.4758374 22.5 0 1 -1.610054,0.617528 18.290759,9.4758374 22.5 0 1 -1.858611,0.401476 18.290759,9.4758374 22.5 0 1 -1.022309,0.08741 18.290759,9.4758374 22.5 0 1 -2.4143,-8.227315 18.290759,9.4758374 22.5 0 1 7.501027,-4.139051 z"
         inkscape:transform-center-y="-33.827276"
         inkscape:transform-center-x="-14.013204" /><path
         id="path1159"
         style="fill:#77216f;fill-opacity:1;stroke:none;stroke-width:0.763762;stroke-dasharray:none;stroke-opacity:1"
         d="m 44.640725,67.750966 a 18.290759,9.4758374 67.5 0 1 -0.09056,1.059204 18.290759,9.4758374 67.5 0 1 -0.401782,1.858736 18.290759,9.4758374 67.5 0 1 -0.617526,1.610053 18.290759,9.4758374 67.5 0 1 -0.82129,1.326973 18.290759,9.4758374 67.5 0 1 -1.008509,1.017888 18.290759,9.4758374 67.5 0 1 -1.174448,0.688354 18.290759,9.4758374 67.5 0 1 -1.317184,0.34372 18.290759,9.4758374 67.5 0 1 -1.432895,-0.0066 18.290759,9.4758374 67.5 0 1 -1.519042,-0.357575 18.290759,9.4758374 67.5 0 1 -1.575142,-0.701823 18.290759,9.4758374 67.5 0 1 -1.598119,-1.030348 18.290759,9.4758374 67.5 0 1 -0.784694,-0.661071 18.290759,9.4758374 67.5 0 1 4.11042,-7.524758 18.290759,9.4758374 67.5 0 1 8.230779,2.377277 z"
         inkscape:transform-center-y="-13.99731"
         inkscape:transform-center-x="-33.796755" /><path
         id="path1161"
         style="fill:#77216f;fill-opacity:1;stroke:none;stroke-width:0.763762;stroke-dasharray:none;stroke-opacity:1"
         d="m 44.665649,84.188865 a 9.4758374,18.290759 22.5 0 1 -0.813009,0.684932 9.4758374,18.290759 22.5 0 1 -1.59843,1.030219 9.4758374,18.290759 22.5 0 1 -1.575131,0.701825 9.4758374,18.290759 22.5 0 1 -1.519053,0.357571 9.4758374,18.290759 22.5 0 1 -1.432879,0.0066 9.4758374,18.290759 22.5 0 1 -1.317201,-0.34372 9.4758374,18.290759 22.5 0 1 -1.174436,-0.688342 9.4758374,18.290759 22.5 0 1 -1.008525,-1.017893 9.4758374,18.290759 22.5 0 1 -0.821282,-1.326969 9.4758374,18.290759 22.5 0 1 -0.61753,-1.610058 9.4758374,18.290759 22.5 0 1 -0.401474,-1.858606 9.4758374,18.290759 22.5 0 1 -0.08742,-1.022311 9.4758374,18.290759 22.5 0 1 8.227311,-2.414302 9.4758374,18.290759 22.5 0 1 4.139051,7.501028 z"
         inkscape:transform-center-y="14.013194"
         inkscape:transform-center-x="-33.82728" /><path
         id="path1163"
         style="fill:#77216f;fill-opacity:1;stroke:none;stroke-width:0.763762;stroke-dasharray:none;stroke-opacity:1"
         d="m 33.059922,95.829839 a 9.4758374,18.290759 67.5 0 1 -1.059203,-0.09056 9.4758374,18.290759 67.5 0 1 -1.85874,-0.401786 9.4758374,18.290759 67.5 0 1 -1.610046,-0.617517 9.4758374,18.290759 67.5 0 1 -1.326974,-0.821295 9.4758374,18.290759 67.5 0 1 -1.017888,-1.008512 9.4758374,18.290759 67.5 0 1 -0.688352,-1.174448 9.4758374,18.290759 67.5 0 1 -0.343721,-1.317185 9.4758374,18.290759 67.5 0 1 0.0066,-1.432891 9.4758374,18.290759 67.5 0 1 0.357574,-1.519045 9.4758374,18.290759 67.5 0 1 0.701825,-1.575139 9.4758374,18.290759 67.5 0 1 1.030346,-1.598121 9.4758374,18.290759 67.5 0 1 0.661069,-0.784696 9.4758374,18.290759 67.5 0 1 7.524757,4.110416 9.4758374,18.290759 67.5 0 1 -2.377276,8.230779 z"
         inkscape:transform-center-y="33.796746"
         inkscape:transform-center-x="-13.997313" /><path
         id="path1165"
         style="fill:#77216f;fill-opacity:1;stroke:none;stroke-width:0.763762;stroke-dasharray:none;stroke-opacity:1"
         d="m 16.622022,95.854763 a 18.290759,9.4758374 22.5 0 1 -0.684929,-0.813009 18.290759,9.4758374 22.5 0 1 -1.030224,-1.598434 18.290759,9.4758374 22.5 0 1 -0.701823,-1.575122 18.290759,9.4758374 22.5 0 1 -0.35757,-1.519058 18.290759,9.4758374 22.5 0 1 -0.0066,-1.432883 18.290759,9.4758374 22.5 0 1 0.343721,-1.317197 18.290759,9.4758374 22.5 0 1 0.688343,-1.174439 18.290759,9.4758374 22.5 0 1 1.01789,-1.008521 18.290759,9.4758374 22.5 0 1 1.326971,-0.821286 18.290759,9.4758374 22.5 0 1 1.610056,-0.617525 18.290759,9.4758374 22.5 0 1 1.858607,-0.401477 18.290759,9.4758374 22.5 0 1 1.02231,-0.08742 18.290759,9.4758374 22.5 0 1 2.414305,8.227311 18.290759,9.4758374 22.5 0 1 -7.501028,4.13905 z"
         inkscape:transform-center-y="33.827277"
         inkscape:transform-center-x="14.013195" /><path
         id="path1167"
         style="fill:#77216f;fill-opacity:1;stroke:none;stroke-width:0.763762;stroke-dasharray:none;stroke-opacity:1"
         d="m 4.9810485,84.249035 a 18.290759,9.4758374 67.5 0 1 0.090565,-1.059202 18.290759,9.4758374 67.5 0 1 0.4017864,-1.858742 18.290759,9.4758374 67.5 0 1 0.617516,-1.610045 18.290759,9.4758374 67.5 0 1 0.8212955,-1.326974 18.290759,9.4758374 67.5 0 1 1.0085143,-1.017888 18.290759,9.4758374 67.5 0 1 1.1744458,-0.688352 18.290759,9.4758374 67.5 0 1 1.3171865,-0.343722 18.290759,9.4758374 67.5 0 1 1.432889,0.0066 18.290759,9.4758374 67.5 0 1 1.519048,0.357573 18.290759,9.4758374 67.5 0 1 1.575137,0.701826 18.290759,9.4758374 67.5 0 1 1.598121,1.030346 18.290759,9.4758374 67.5 0 1 0.784696,0.661068 18.290759,9.4758374 67.5 0 1 -4.110416,7.524761 18.290759,9.4758374 67.5 0 1 -8.2307781,-2.37728 z"
         inkscape:transform-center-y="13.99731"
         inkscape:transform-center-x="33.796748" /><path
         id="path1169"
         style="fill:#77216f;fill-opacity:1;stroke:none;stroke-width:0.763762;stroke-dasharray:none;stroke-opacity:1"
         d="m 4.9561261,67.811135 a 9.4758374,18.290759 22.5 0 1 0.8130086,-0.684929 9.4758374,18.290759 22.5 0 1 1.5984351,-1.030223 9.4758374,18.290759 22.5 0 1 1.5751229,-0.701824 9.4758374,18.290759 22.5 0 1 1.5190563,-0.35757 9.4758374,18.290759 22.5 0 1 1.432883,-0.0066 9.4758374,18.290759 22.5 0 1 1.317197,0.343721 9.4758374,18.290759 22.5 0 1 1.174439,0.688343 9.4758374,18.290759 22.5 0 1 1.008522,1.017889 9.4758374,18.290759 22.5 0 1 0.821287,1.326972 9.4758374,18.290759 22.5 0 1 0.617524,1.610055 9.4758374,18.290759 22.5 0 1 0.401478,1.858607 9.4758374,18.290759 22.5 0 1 0.08742,1.02231 9.4758374,18.290759 22.5 0 1 -8.2273119,2.414306 9.4758374,18.290759 22.5 0 1 -4.1390479,-7.501029 z"
         inkscape:transform-center-y="-14.013196"
         inkscape:transform-center-x="33.827274" /><path
         id="path1171"
         style="fill:#77216f;fill-opacity:1;stroke:none;stroke-width:0.763762;stroke-dasharray:none;stroke-opacity:1"
         d="m 16.561854,56.170162 a 9.4758374,18.290759 67.5 0 1 1.059202,0.09057 9.4758374,18.290759 67.5 0 1 1.858742,0.401786 9.4758374,18.290759 67.5 0 1 1.610044,0.617516 9.4758374,18.290759 67.5 0 1 1.326976,0.821296 9.4758374,18.290759 67.5 0 1 1.017888,1.008514 9.4758374,18.290759 67.5 0 1 0.688352,1.174446 9.4758374,18.290759 67.5 0 1 0.343721,1.317185 9.4758374,18.290759 67.5 0 1 -0.0066,1.432889 9.4758374,18.290759 67.5 0 1 -0.357574,1.519049 9.4758374,18.290759 67.5 0 1 -0.701825,1.575137 9.4758374,18.290759 67.5 0 1 -1.030346,1.598121 9.4758374,18.290759 67.5 0 1 -0.661068,0.784696 9.4758374,18.290759 67.5 0 1 -7.524761,-4.110416 9.4758374,18.290759 67.5 0 1 2.37728,-8.230778 z"
         inkscape:transform-center-y="-33.796747"
         inkscape:transform-center-x="13.99731" /><ellipse
         style="fill:#ffffff;fill-opacity:1;stroke:#ffffff;stroke-width:0.763762;stroke-dasharray:none;stroke-opacity:0"
         id="ellipse356"
         cx="24.834202"
         cy="76.316269"
         rx="13.266382"
         ry="13.659238"
         inkscape:transform-center-x="-0.057685852"
         inkscape:transform-center-y="0.78253174" /><g
         id="g1411"
         transform="matrix(0.40415839,0,0,0.40415839,-11.563368,45.283964)"><g
           id="g5277"
           transform="matrix(0.30096964,0,0,0.30096964,62.912732,53.126308)"><circle
             style="fill:#dd4814;fill-opacity:1;stroke:none;stroke-width:0.741079;stroke-opacity:1"
             id="path3779"
             cx="90"
             cy="76"
             r="32.524372" /><circle
             style="fill:#77216f;fill-opacity:1;stroke:none;stroke-width:0.942107;stroke-opacity:1"
             id="path4507"
             cx="90"
             cy="76"
             r="12.537067" /><circle
             style="fill:#77216f;fill-opacity:1;stroke:none;stroke-width:0.428307;stroke-opacity:1"
             id="circle5251"
             cx="90"
             cy="54.023911"
             r="5.6996841"
             inkscape:transform-center-y="-21.976089" /><circle
             style="fill:#77216f;fill-opacity:1;stroke:none;stroke-width:0.428307;stroke-opacity:1"
             id="circle5253"
             cx="117.37972"
             cy="-31.875582"
             r="5.6996841"
             inkscape:transform-center-y="-15.539442"
             transform="rotate(45)"
             inkscape:transform-center-x="-15.539438" /><circle
             style="fill:#77216f;fill-opacity:1;stroke:none;stroke-width:0.428307;stroke-opacity:1"
             id="circle5255"
             cx="76"
             cy="-111.97608"
             r="5.6996841"
             transform="rotate(90)"
             inkscape:transform-center-x="-21.976082" /><circle
             style="fill:#77216f;fill-opacity:1;stroke:none;stroke-width:0.428307;stroke-opacity:1"
             id="circle5257"
             cx="-9.8994942"
             cy="-139.35582"
             r="5.6996841"
             transform="rotate(135)"
             inkscape:transform-center-x="-15.539445"
             inkscape:transform-center-y="15.539445" /><circle
             style="fill:#77216f;fill-opacity:1;stroke:none;stroke-width:0.428307;stroke-opacity:1"
             id="circle5259"
             cx="-90"
             cy="-97.976089"
             r="5.6996841"
             transform="scale(-1)"
             inkscape:transform-center-y="21.976089" /><circle
             style="fill:#77216f;fill-opacity:1;stroke:none;stroke-width:0.428307;stroke-opacity:1"
             id="circle5261"
             cx="-117.37972"
             cy="-12.076596"
             r="5.6996841"
             transform="rotate(-135)"
             inkscape:transform-center-y="15.539441"
             inkscape:transform-center-x="15.539445" /><circle
             style="fill:#77216f;fill-opacity:1;stroke:none;stroke-width:0.428307;stroke-opacity:1"
             id="circle5263"
             cx="-76"
             cy="68.023911"
             r="5.6996841"
             transform="rotate(-90)"
             inkscape:transform-center-x="21.976089" /><circle
             style="fill:#77216f;fill-opacity:1;stroke:none;stroke-width:0.428307;stroke-opacity:1"
             id="circle5265"
             cx="9.8994951"
             cy="95.403633"
             r="5.6996841"
             transform="rotate(-45)"
             inkscape:transform-center-x="15.539444"
             inkscape:transform-center-y="-15.539444" /></g><g
           id="g5331"
           transform="matrix(0.79409882,0,0,0.79409882,18.531106,15.64849)"><ellipse
             style="fill:#77216f;fill-opacity:1;stroke:none;stroke-width:0.540907;stroke-opacity:1"
             id="path5281"
             cx="90"
             cy="60.291264"
             rx="2.1602256"
             ry="2.2401469"
             inkscape:transform-center-y="-15.708736" /><ellipse
             style="fill:#77216f;fill-opacity:1;stroke:none;stroke-width:0.540907;stroke-opacity:1"
             id="ellipse5285"
             cx="112.2331"
             cy="20.0646"
             rx="2.1602256"
             ry="2.2401469"
             inkscape:transform-center-y="-14.512978"
             transform="rotate(22.5)"
             inkscape:transform-center-x="-6.0114748" /><ellipse
             style="fill:#77216f;fill-opacity:1;stroke:none;stroke-width:0.540907;stroke-opacity:1"
             id="ellipse5287"
             cx="117.37973"
             cy="-25.608231"
             rx="2.1602256"
             ry="2.2401469"
             inkscape:transform-center-y="-11.10775"
             transform="rotate(45)"
             inkscape:transform-center-x="-11.107757" /><ellipse
             style="fill:#77216f;fill-opacity:1;stroke:none;stroke-width:0.540907;stroke-opacity:1"
             id="ellipse5289"
             cx="104.65636"
             cy="-69.773956"
             rx="2.1602256"
             ry="2.2401469"
             inkscape:transform-center-y="-6.0114708"
             transform="rotate(67.5)"
             inkscape:transform-center-x="-14.512984" /><ellipse
             style="fill:#77216f;fill-opacity:1;stroke:none;stroke-width:0.540907;stroke-opacity:1"
             id="ellipse5291"
             cx="76"
             cy="-105.70874"
             rx="2.1602256"
             ry="2.2401469"
             transform="rotate(90)"
             inkscape:transform-center-x="-15.70874" /><ellipse
             style="fill:#77216f;fill-opacity:1;stroke:none;stroke-width:0.540907;stroke-opacity:1"
             id="ellipse5293"
             cx="35.773335"
             cy="-127.94184"
             rx="2.1602256"
             ry="2.2401469"
             transform="rotate(112.5)"
             inkscape:transform-center-x="-14.512986"
             inkscape:transform-center-y="6.0114745" /><ellipse
             style="fill:#77216f;fill-opacity:1;stroke:none;stroke-width:0.540907;stroke-opacity:1"
             id="ellipse5295"
             cx="-9.8994961"
             cy="-133.08847"
             rx="2.1602256"
             ry="2.2401469"
             transform="rotate(135)"
             inkscape:transform-center-x="-11.107761"
             inkscape:transform-center-y="11.107759" /><ellipse
             style="fill:#77216f;fill-opacity:1;stroke:none;stroke-width:0.540907;stroke-opacity:1"
             id="ellipse5297"
             cx="-54.06522"
             cy="-120.3651"
             rx="2.1602256"
             ry="2.2401469"
             transform="rotate(157.5)"
             inkscape:transform-center-x="-6.0114788"
             inkscape:transform-center-y="14.512986" /><ellipse
             style="fill:#77216f;fill-opacity:1;stroke:none;stroke-width:0.540907;stroke-opacity:1"
             id="ellipse5299"
             cx="-90"
             cy="-91.70874"
             rx="2.1602256"
             ry="2.2401469"
             transform="scale(-1)"
             inkscape:transform-center-y="15.708741" /><ellipse
             style="fill:#77216f;fill-opacity:1;stroke:none;stroke-width:0.540907;stroke-opacity:1"
             id="ellipse5301"
             cx="-112.2331"
             cy="-51.482075"
             rx="2.1602256"
             ry="2.2401469"
             transform="rotate(-157.5)"
             inkscape:transform-center-y="14.512984"
             inkscape:transform-center-x="6.0114723" /><ellipse
             style="fill:#77216f;fill-opacity:1;stroke:none;stroke-width:0.540907;stroke-opacity:1"
             id="ellipse5303"
             cx="-117.37973"
             cy="-5.8092442"
             rx="2.1602256"
             ry="2.2401469"
             transform="rotate(-135)"
             inkscape:transform-center-y="11.10776"
             inkscape:transform-center-x="11.107753" /><ellipse
             style="fill:#77216f;fill-opacity:1;stroke:none;stroke-width:0.540907;stroke-opacity:1"
             id="ellipse5305"
             cx="-104.65636"
             cy="38.35648"
             rx="2.1602256"
             ry="2.2401469"
             transform="rotate(-112.5)"
             inkscape:transform-center-y="6.0114776"
             inkscape:transform-center-x="14.51298" /><ellipse
             style="fill:#77216f;fill-opacity:1;stroke:none;stroke-width:0.540907;stroke-opacity:1"
             id="ellipse5307"
             cx="-76"
             cy="74.29126"
             rx="2.1602256"
             ry="2.2401469"
             transform="rotate(-90)"
             inkscape:transform-center-x="15.708741" /><ellipse
             style="fill:#77216f;fill-opacity:1;stroke:none;stroke-width:0.540907;stroke-opacity:1"
             id="ellipse5309"
             cx="-35.773335"
             cy="96.524361"
             rx="2.1602256"
             ry="2.2401469"
             transform="rotate(-67.5)"
             inkscape:transform-center-x="14.512982"
             inkscape:transform-center-y="-6.0114748" /><ellipse
             style="fill:#77216f;fill-opacity:1;stroke:none;stroke-width:0.540907;stroke-opacity:1"
             id="ellipse5311"
             cx="9.8994961"
             cy="101.67099"
             rx="2.1602256"
             ry="2.2401469"
             transform="rotate(-45)"
             inkscape:transform-center-x="11.107753"
             inkscape:transform-center-y="-11.107754" /><ellipse
             style="fill:#77216f;fill-opacity:1;stroke:none;stroke-width:0.540907;stroke-opacity:1"
             id="ellipse5313"
             cx="54.06522"
             cy="88.947617"
             rx="2.1602256"
             ry="2.2401469"
             transform="rotate(-22.5)"
             inkscape:transform-center-x="6.011471"
             inkscape:transform-center-y="-14.512981" /></g></g><path
         id="path437"
         style="fill:#77216f;fill-opacity:1;stroke:none;stroke-width:0.20969"
         d="m 24.778324,54.522852 a 18.290759,9.4758374 0 0 1 0.943916,0.489011 18.290759,9.4758374 0 0 1 1.563494,1.082504 18.290759,9.4758374 0 0 1 1.251179,1.18666 18.290759,9.4758374 0 0 1 0.911671,1.266581 18.290759,9.4758374 0 0 1 0.554457,1.321276 18.290759,9.4758374 0 0 1 0.186511,1.348471 18.290759,9.4758374 0 0 1 -0.186507,1.348456 18.290759,9.4758374 0 0 1 -0.554461,1.321283 18.290759,9.4758374 0 0 1 -0.91167,1.266578 18.290759,9.4758374 0 0 1 -1.251181,1.186663 18.290759,9.4758374 0 0 1 -1.563492,1.082175 18.290759,9.4758374 0 0 1 -0.911039,0.471981 18.290759,9.4758374 0 0 1 -5.378979,-6.677135 18.290759,9.4758374 0 0 1 5.346101,-6.694504 z"
         inkscape:transform-center-y="-36.597855" /><path
         id="path1076"
         style="fill:#77216f;fill-opacity:1;stroke:#ffffff;stroke-width:0.763762;stroke-dasharray:none;stroke-opacity:0.303867"
         d="m 24.778324,54.522852 a 18.290759,9.4758374 0 0 1 0.943916,0.489011 18.290759,9.4758374 0 0 1 1.563494,1.082504 18.290759,9.4758374 0 0 1 1.251179,1.18666 18.290759,9.4758374 0 0 1 0.911671,1.266581 18.290759,9.4758374 0 0 1 0.554457,1.321276 18.290759,9.4758374 0 0 1 0.186511,1.348471 18.290759,9.4758374 0 0 1 -0.186507,1.348456 18.290759,9.4758374 0 0 1 -0.554461,1.321283 18.290759,9.4758374 0 0 1 -0.91167,1.266578 18.290759,9.4758374 0 0 1 -1.251181,1.186663 18.290759,9.4758374 0 0 1 -1.563492,1.082175 18.290759,9.4758374 0 0 1 -0.911039,0.471981 18.290759,9.4758374 0 0 1 -5.378979,-6.677135 18.290759,9.4758374 0 0 1 5.346101,-6.694504 z"
         inkscape:transform-center-y="-36.597855" /><path
         id="path1090"
         style="fill:#77216f;fill-opacity:1;stroke:#ffffff;stroke-width:0.763762;stroke-dasharray:none;stroke-opacity:0.303867"
         d="m 39.974498,60.790338 a 18.290759,9.4758374 45 0 1 0.321669,1.013232 18.290759,9.4758374 45 0 1 0.340112,1.871003 18.290759,9.4758374 45 0 1 0.04562,1.723813 18.290759,9.4758374 45 0 1 -0.250958,1.540257 18.290759,9.4758374 45 0 1 -0.542227,1.326343 18.290759,9.4758374 45 0 1 -0.821626,1.085396 18.290759,9.4758374 45 0 1 -1.085383,0.821623 18.290759,9.4758374 45 0 1 -1.326351,0.542224 18.290759,9.4758374 45 0 1 -1.540256,0.250958 18.290759,9.4758374 45 0 1 -1.723816,-0.04562 18.290759,9.4758374 45 0 1 -1.870768,-0.340343 18.290759,9.4758374 45 0 1 -0.977943,-0.310461 18.290759,9.4758374 45 0 1 0.917933,-8.52496 18.290759,9.4758374 45 0 1 8.513993,-0.953464 z"
         inkscape:transform-center-y="-25.86324"
         inkscape:transform-center-x="-25.893596" /><path
         id="path1092"
         style="fill:#77216f;fill-opacity:1;stroke:#ffffff;stroke-width:0.763762;stroke-dasharray:none;stroke-opacity:0.303867"
         d="m 46.288034,75.967437 a 9.4758374,18.290759 0 0 1 -0.489008,0.943918 9.4758374,18.290759 0 0 1 -1.082502,1.563494 9.4758374,18.290759 0 0 1 -1.186661,1.251179 9.4758374,18.290759 0 0 1 -1.26658,0.911672 9.4758374,18.290759 0 0 1 -1.321279,0.554454 9.4758374,18.290759 0 0 1 -1.34847,0.186514 9.4758374,18.290759 0 0 1 -1.348454,-0.186508 9.4758374,18.290759 0 0 1 -1.321283,-0.554461 9.4758374,18.290759 0 0 1 -1.26658,-0.911671 9.4758374,18.290759 0 0 1 -1.186661,-1.251181 9.4758374,18.290759 0 0 1 -1.082175,-1.563492 9.4758374,18.290759 0 0 1 -0.47198,-0.911038 9.4758374,18.290759 0 0 1 6.677133,-5.378981 9.4758374,18.290759 0 0 1 6.6945,5.346101 z"
         inkscape:transform-center-x="-36.597854" /><path
         id="path1094"
         style="fill:#77216f;fill-opacity:1;stroke:#ffffff;stroke-width:0.763762;stroke-dasharray:none;stroke-opacity:0.303867"
         d="m 40.020551,91.163612 a 9.4758374,18.290759 45 0 1 -1.013233,0.32167 9.4758374,18.290759 45 0 1 -1.871002,0.340111 9.4758374,18.290759 45 0 1 -1.723813,0.04562 9.4758374,18.290759 45 0 1 -1.540255,-0.250958 9.4758374,18.290759 45 0 1 -1.326343,-0.542227 9.4758374,18.290759 45 0 1 -1.0854,-0.821626 9.4758374,18.290759 45 0 1 -0.821618,-1.085384 9.4758374,18.290759 45 0 1 -0.542227,-1.326351 9.4758374,18.290759 45 0 1 -0.250958,-1.540255 9.4758374,18.290759 45 0 1 0.04562,-1.723816 9.4758374,18.290759 45 0 1 0.340342,-1.870769 9.4758374,18.290759 45 0 1 0.310462,-0.977941 9.4758374,18.290759 45 0 1 8.524961,0.917932 9.4758374,18.290759 45 0 1 0.953462,8.513992 z"
         inkscape:transform-center-x="-25.863241"
         inkscape:transform-center-y="25.893598" /><path
         id="path1096"
         style="fill:#77216f;fill-opacity:1;stroke:#ffffff;stroke-width:0.763762;stroke-dasharray:none;stroke-opacity:0.303867"
         d="M 24.843452,97.477148 A 18.290759,9.4758374 0 0 1 23.899533,96.988141 18.290759,9.4758374 0 0 1 22.33604,95.905639 18.290759,9.4758374 0 0 1 21.084861,94.718977 18.290759,9.4758374 0 0 1 20.17319,93.452398 18.290759,9.4758374 0 0 1 19.618737,92.131119 18.290759,9.4758374 0 0 1 19.43222,90.782648 a 18.290759,9.4758374 0 0 1 0.186511,-1.348454 18.290759,9.4758374 0 0 1 0.554459,-1.321283 18.290759,9.4758374 0 0 1 0.911671,-1.266579 18.290759,9.4758374 0 0 1 1.251181,-1.186663 18.290759,9.4758374 0 0 1 1.563491,-1.082175 18.290759,9.4758374 0 0 1 0.911039,-0.471979 18.290759,9.4758374 0 0 1 5.37898,6.677133 18.290759,9.4758374 0 0 1 -5.3461,6.6945 z"
         inkscape:transform-center-x="3.6832094e-06"
         inkscape:transform-center-y="36.597854" /><path
         id="path1098"
         style="fill:#77216f;fill-opacity:1;stroke:#ffffff;stroke-width:0.763762;stroke-dasharray:none;stroke-opacity:0.303867"
         d="M 9.6472782,91.209666 A 18.290759,9.4758374 45 0 1 9.3256073,90.196433 18.290759,9.4758374 45 0 1 8.9854951,88.32543 18.290759,9.4758374 45 0 1 8.9398745,86.601618 18.290759,9.4758374 45 0 1 9.190833,85.061362 18.290759,9.4758374 45 0 1 9.73306,83.735019 a 18.290759,9.4758374 45 0 1 0.821626,-1.0854 18.290759,9.4758374 45 0 1 1.085384,-0.821618 18.290759,9.4758374 45 0 1 1.32635,-0.542226 18.290759,9.4758374 45 0 1 1.540256,-0.250958 18.290759,9.4758374 45 0 1 1.723815,0.04562 18.290759,9.4758374 45 0 1 1.870769,0.340342 18.290759,9.4758374 45 0 1 0.977941,0.310462 18.290759,9.4758374 45 0 1 -0.917933,8.524958 18.290759,9.4758374 45 0 1 -8.5139898,0.953467 z"
         inkscape:transform-center-x="25.8936"
         inkscape:transform-center-y="25.86324" /><path
         id="path1100"
         style="fill:#77216f;fill-opacity:1;stroke:#ffffff;stroke-width:0.763762;stroke-dasharray:none;stroke-opacity:0.303867"
         d="m 3.3337397,76.032568 a 9.4758374,18.290759 0 0 1 0.4890086,-0.94392 9.4758374,18.290759 0 0 1 1.0825031,-1.563495 9.4758374,18.290759 0 0 1 1.1866604,-1.251178 9.4758374,18.290759 0 0 1 1.2665798,-0.911671 9.4758374,18.290759 0 0 1 1.3212787,-0.554453 9.4758374,18.290759 0 0 1 1.3484707,-0.186517 9.4758374,18.290759 0 0 1 1.348454,0.186511 9.4758374,18.290759 0 0 1 1.321283,0.554459 9.4758374,18.290759 0 0 1 1.26658,0.911671 9.4758374,18.290759 0 0 1 1.186662,1.251181 9.4758374,18.290759 0 0 1 1.082175,1.563492 9.4758374,18.290759 0 0 1 0.47198,0.911038 9.4758374,18.290759 0 0 1 -6.677133,5.378979 9.4758374,18.290759 0 0 1 -6.6945023,-5.346097 z"
         inkscape:transform-center-x="36.597856"
         inkscape:transform-center-y="-5.0193412e-06" /><path
         id="path1102"
         style="fill:#77216f;fill-opacity:1;stroke:#ffffff;stroke-width:0.763762;stroke-dasharray:none;stroke-opacity:0.303867"
         d="m 9.6012231,60.836392 a 9.4758374,18.290759 45 0 1 1.0132339,-0.321671 9.4758374,18.290759 45 0 1 1.871002,-0.340112 9.4758374,18.290759 45 0 1 1.723812,-0.04562 9.4758374,18.290759 45 0 1 1.540256,0.250959 9.4758374,18.290759 45 0 1 1.326343,0.542227 9.4758374,18.290759 45 0 1 1.0854,0.821625 9.4758374,18.290759 45 0 1 0.821619,1.085385 9.4758374,18.290759 45 0 1 0.542225,1.326349 9.4758374,18.290759 45 0 1 0.250959,1.540257 9.4758374,18.290759 45 0 1 -0.04562,1.723815 9.4758374,18.290759 45 0 1 -0.340342,1.870769 9.4758374,18.290759 45 0 1 -0.310461,0.977941 9.4758374,18.290759 45 0 1 -8.524959,-0.917933 9.4758374,18.290759 45 0 1 -0.9534659,-8.51399 z"
         inkscape:transform-center-x="25.863241"
         inkscape:transform-center-y="-25.8936" /><ellipse
         style="fill:none;fill-opacity:1;stroke:#ffffff;stroke-width:0.763762;stroke-dasharray:none;stroke-opacity:0.413519"
         id="path1277"
         cx="24.834202"
         cy="76.316269"
         rx="13.266382"
         ry="13.659238"
         inkscape:transform-center-x="-0.057685852"
         inkscape:transform-center-y="0.78253174" /></g><g
       aria-label="Project Vaaniy"
       id="text352"
       style="font-size:26.4761px;font-family:'Yatra One';-inkscape-font-specification:'Yatra One, Normal';fill:#ff0000;stroke:#ffffff;stroke-width:1.70568;stroke-opacity:0"
       transform="translate(-1.5740751,5.1510996)"><path
         d="m 49.71338,80.250576 q -0.503046,0 -0.503046,-0.714855 0,-0.900187 0.555998,-2.621134 0.555998,-1.720947 2.012184,-4.236176 -2.700562,-0.450094 -2.700562,-1.244377 0,-0.529522 0.820759,-0.873711 0.714855,-0.291237 1.403233,-0.291237 0.34419,0 0.34419,0.185332 0,0.185333 -0.767807,0.317714 -0.82076,0.158856 -0.82076,0.476569 0,0.450094 2.012184,0.900188 0.60895,-1.059044 1.244377,-2.03866 0.635426,-0.979616 1.191424,-1.800375 0.264761,-0.370665 0.503046,-0.688378 0.264761,-0.34419 0.608951,-0.767807 0.238285,-0.291237 0.820759,-0.423618 0.60895,-0.13238 1.191424,-0.13238 0.450094,0 0.450094,0.185332 0,0.05295 -0.07943,0.185333 -1.138473,1.270853 -2.276945,2.700562 -1.111996,1.403234 -2.118088,2.965324 0.714855,0.07943 1.403233,0.07943 1.08552,0 2.435802,-0.238285 1.350281,-0.238285 2.674086,-0.714855 1.323805,-0.503046 2.329897,-1.244377 1.032568,-0.74133 1.429709,-1.720946 0.185333,-0.397142 0.185333,-0.820759 0,-0.714855 -0.529522,-1.164949 -0.503046,-0.450093 -1.323805,-0.688378 -0.820759,-0.264761 -1.773899,-0.370666 -0.926664,-0.105904 -1.826851,-0.13238 -0.873711,-0.02648 -1.509138,-0.02648 -2.700562,0 -5.348172,0.397141 -2.64761,0.370666 -5.242268,1.138473 -0.105904,0.02648 -0.185333,0.05295 -0.105904,0 -0.185332,0 -0.211809,0 -0.211809,-0.158857 0,-0.05295 0,-0.13238 -0.02648,-0.07943 -0.02648,-0.185333 0,-0.185333 0.05295,-0.370665 0.05295,-0.211809 0.238285,-0.317714 0.238285,-0.185332 0.450093,-0.291237 0.211809,-0.13238 0.450094,-0.185333 3.574274,-0.953139 8.392924,-0.953139 1.720947,0 3.362465,0.13238 1.641518,0.132381 3.25656,0.423618 1.56209,0.291237 2.382849,0.794283 0.847236,0.503046 1.164949,1.08552 0.344189,0.582474 0.344189,1.164949 0,0.423617 -0.13238,0.794283 -0.105905,0.344189 -0.238285,0.60895 -0.503046,0.900187 -1.509138,1.588566 -1.006092,0.661902 -2.488753,1.191425 -1.297329,0.450093 -2.674087,0.74133 -1.376757,0.291237 -2.753514,0.291237 -0.714855,0 -1.509138,-0.02648 -0.767807,-0.05295 -1.535614,-0.105904 -1.615042,2.51523 -2.382849,4.103796 -0.767807,1.588566 -0.767807,2.409325 0,0.13238 0.05295,0.211809 0.02648,0.05295 0.02648,0.105904 0,0.05295 0,0.07943 0,0.370666 -0.370666,0.370666 z"
         style="font-weight:bold;font-family:Corinthia;-inkscape-font-specification:'Corinthia, Bold'"
         id="path1306" /><path
         d="m 68.988007,78.926771 q -0.926664,0 -1.56209,-0.423618 -0.635427,-0.423618 -0.635427,-1.429709 0,-0.635427 0.503046,-1.694471 0.503046,-1.059044 1.244377,-1.959231 -0.132381,0.02648 -0.344189,0.05295 -0.185333,0 -0.423618,0 -0.397142,0 -0.794283,-0.105905 -0.397142,-0.13238 -0.529522,-0.476569 -0.105904,0.13238 -0.529522,0.661902 -0.423618,0.529522 -0.979616,1.164949 -0.529522,0.60895 -0.979616,1.059044 -0.450093,0.450093 -0.60895,0.450093 -0.05295,0 -0.13238,-0.05295 -0.07943,-0.05295 -0.07943,-0.13238 0,-0.132381 0.264761,-0.397142 0.291237,-0.264761 0.423618,-0.397141 1.006092,-1.085521 1.482662,-1.773899 0.503046,-0.714855 0.688378,-1.059044 -0.158856,-0.238285 -0.158856,-0.741331 0,-0.555998 0.158856,-1.164948 0.185333,-0.635427 0.47657,-1.085521 0.317713,-0.450093 0.714855,-0.450093 0.450093,0 0.741331,0.47657 0.291237,0.476569 0.291237,0.873711 0,0.317713 -0.238285,0.688378 -0.238285,0.370666 -0.555998,0.714855 -0.291237,0.34419 -0.503046,0.555998 0.238285,0.635427 0.926663,0.635427 0.47657,0 0.794283,-0.264761 0.317714,-0.264761 0.582475,-0.503046 0.264761,-0.264761 0.555998,-0.264761 0.370665,0 0.661902,0.264761 0.291237,0.238285 0.264761,0.60895 -0.450094,0.47657 -1.006092,1.297329 -0.529522,0.794283 -0.900187,1.667994 -0.370665,0.847236 -0.370665,1.535614 0,0.503046 0.291237,0.688379 0.317713,0.185333 0.820759,0.185333 0.47657,0 1.006092,-0.264761 0.529522,-0.264761 1.059044,-0.635427 0.344189,-0.238285 1.006091,-0.873711 0.688379,-0.635427 1.588567,-1.615042 0.05295,-0.05295 0.105904,-0.05295 0.211809,0 0.211809,0.291237 0,0.07943 -0.317713,0.450093 -0.317714,0.34419 -0.767807,0.794283 -0.423618,0.450094 -0.82076,0.847236 -0.397141,0.370665 -0.582474,0.503046 -0.661902,0.503045 -1.429709,0.926663 -0.741331,0.423618 -1.615042,0.423618 z"
         style="font-weight:bold;font-family:Corinthia;-inkscape-font-specification:'Corinthia, Bold'"
         id="path1308" /><path
         d="m 74.256749,78.820866 q -0.60895,0 -0.979615,-0.317713 -0.34419,-0.291237 -0.34419,-0.926663 0,-1.006092 0.503046,-1.90628 0.529522,-0.926663 1.111996,-1.667994 -0.02648,-0.132381 -0.05295,-0.264761 0,-0.158857 0,-0.291237 0,-0.767807 0.397142,-1.42971 0.423617,-0.661902 1.08552,-1.059044 0.688378,-0.423617 1.429709,-0.423617 0.926664,0 1.376758,0.529522 0.476569,0.503046 0.476569,1.429709 0,0.979616 -0.476569,2.012184 -0.450094,1.006092 -0.95314,1.826851 0.13238,0.07943 0.397141,0.158856 0.291238,0.07943 0.503046,0.07943 0.926664,0 1.588566,-0.317714 0.688379,-0.344189 1.615043,-1.191424 0.13238,-0.132381 0.211808,-0.132381 0.105905,0 0.105905,0.185333 0,0.211809 -0.185333,0.423618 -0.582474,0.714854 -1.535614,1.164948 -0.953139,0.450094 -1.853327,0.450094 -0.317713,0 -0.635426,-0.05295 -0.317713,-0.05295 -0.608951,-0.158857 -0.582474,0.741331 -1.376757,1.323805 -0.794283,0.555998 -1.800375,0.555998 z m 2.859419,-2.832943 q 0.317713,-0.635426 0.555998,-1.456185 0.238285,-0.820759 0.291237,-1.667994 0.05295,-0.450094 -0.211808,-0.926664 -0.238285,-0.47657 -0.847236,-0.47657 -0.582474,0 -0.979615,0.423618 -0.370666,0.423617 -0.450094,1.111996 0.185333,-0.13238 0.47657,-0.238285 0.317713,-0.105904 0.529522,-0.105904 0.344189,0 0.555998,0.185332 0.211809,0.158857 0.211809,0.370666 0,0.264761 -0.34419,0.370665 -0.317713,0.105905 -0.688378,0.397142 -0.34419,0.291237 -0.503046,0.529522 0.211809,0.423617 0.60895,0.820759 0.397142,0.397141 0.794283,0.661902 z m -2.223992,2.065136 q 0.264761,0 0.661902,-0.264761 0.397142,-0.291237 0.741331,-0.635426 0.370665,-0.344189 0.529522,-0.555998 -0.370665,-0.211809 -0.900187,-0.688379 -0.503046,-0.47657 -0.794283,-0.820759 -0.158857,0.185333 -0.34419,0.635426 -0.185332,0.423618 -0.317713,0.900188 -0.13238,0.47657 -0.13238,0.794283 0,0.635426 0.555998,0.635426 z"
         style="font-weight:bold;font-family:Corinthia;-inkscape-font-specification:'Corinthia, Bold'"
         id="path1310" /><path
         d="m 84.34416,70.560323 q -0.397142,0 -0.688379,-0.264761 -0.264761,-0.291237 -0.264761,-0.688379 0,-0.397141 0.264761,-0.688378 0.291237,-0.291238 0.688379,-0.291238 0.397141,0 0.688378,0.291238 0.291237,0.291237 0.291237,0.688378 0,0.397142 -0.291237,0.688379 -0.291237,0.264761 -0.688378,0.264761 z M 71.556203,89.25245 q -0.847235,0 -1.694471,-0.264761 -0.847235,-0.264761 -1.403233,-0.873711 -0.555998,-0.582475 -0.555998,-1.56209 0,-1.164949 0.767807,-2.197517 0.741331,-1.032568 2.012183,-1.932755 1.244377,-0.900187 2.779991,-1.667994 1.535614,-0.741331 3.097704,-1.297329 1.56209,-0.555998 2.938847,-0.926664 1.350281,-0.344189 2.276945,-0.450094 0.185332,-0.450093 0.370665,-1.059044 0.211809,-0.635426 0.344189,-1.2179 0.132381,-0.608951 0.158857,-0.95314 -0.211809,0.238285 -0.582474,0.714855 -0.370666,0.47657 -0.900188,0.873711 -0.05295,0.05295 -0.185332,0.05295 -0.158857,0 -0.238285,-0.105904 -0.07943,-0.105904 0.05295,-0.238285 l 0.688379,-0.688379 q 0.688378,-0.820759 1.006091,-1.429709 0.34419,-0.60895 0.582475,-1.350281 0.13238,-0.370666 0.423617,-0.555998 0.317714,-0.211809 0.608951,-0.211809 0.264761,0 0.450093,0.158857 0.185333,0.13238 0.185333,0.450093 0,0.370666 -0.158857,1.059044 -0.13238,0.688379 -0.370665,1.509138 -0.211809,0.794283 -0.450094,1.588566 -0.238285,0.794283 -0.423617,1.376757 0.185332,0 0.635426,0.07943 0.450094,0.07943 0.847235,0.211808 0.397142,0.132381 0.397142,0.370666 0,0.185333 -0.105905,0.185333 -0.07943,0 -0.238284,-0.02648 -0.503046,-0.13238 -0.847236,-0.211808 -0.317713,-0.07943 -0.661902,-0.02648 l -0.132381,0.02648 q -0.688378,1.773898 -1.800375,3.627225 -1.111996,1.879804 -2.594657,3.441894 -1.509138,1.588566 -3.335989,2.541705 -1.826851,0.979616 -3.944939,0.979616 z m 0.317713,-0.714855 q 1.429709,0 2.727038,-0.60895 1.270853,-0.60895 2.38285,-1.641518 1.08552,-1.032568 1.985707,-2.329897 0.900188,-1.270853 1.56209,-2.621134 0.661903,-1.323805 1.08552,-2.541706 -0.820759,0.07943 -2.012184,0.370666 -1.2179,0.317713 -2.594657,0.794283 -1.403234,0.476569 -2.753515,1.111996 -1.376757,0.635426 -2.488753,1.403233 -1.138473,0.794283 -1.853327,1.667995 -0.714855,0.900187 -0.767807,1.879803 l -0.02648,0.423617 q -0.02648,0.661903 0.397141,1.138473 0.397142,0.476569 1.059044,0.714854 0.635427,0.238285 1.297329,0.238285 z"
         style="font-weight:bold;font-family:Corinthia;-inkscape-font-specification:'Corinthia, Bold'"
         id="path1312" /><path
         d="m 89.374596,78.66201 q -1.164949,0 -2.03866,-0.555998 -0.873711,-0.555999 -0.873711,-1.853328 0,-0.794283 0.423617,-1.641518 0.450094,-0.873711 1.164949,-1.615042 0.714855,-0.741331 1.535614,-1.191424 0.847235,-0.47657 1.667994,-0.47657 0.423618,0 0.714855,0.238285 0.291237,0.211808 0.291237,0.661902 0,0.529522 -0.47657,1.08552 -0.450094,0.555998 -1.138472,1.059044 -0.661903,0.47657 -1.350281,0.847236 -0.688379,0.344189 -1.138473,0.503045 -0.07943,0.317714 -0.07943,0.661903 0,0.60895 0.317713,1.08552 0.344189,0.47657 1.164949,0.47657 0.820759,0 1.482661,-0.317713 0.688379,-0.34419 1.244377,-0.820759 0.555998,-0.503046 1.006092,-0.95314 0.370665,-0.370665 0.60895,-0.60895 0.238285,-0.264761 0.423618,-0.450094 0.07943,-0.07943 0.238285,-0.07943 0.13238,0 0.211808,0.105904 0.07943,0.07943 -0.05295,0.211809 -0.105904,0.13238 -0.370665,0.397141 -0.238285,0.238285 -0.47657,0.503046 -0.211809,0.238285 -0.317713,0.34419 -1.164949,1.244376 -2.223993,1.826851 -1.059044,0.555998 -1.959231,0.555998 z m -1.138472,-3.46837 q 0.264761,-0.05295 0.74133,-0.317713 0.503046,-0.291237 0.979616,-0.661902 0.211809,-0.185333 0.582474,-0.555998 0.370666,-0.370666 0.503046,-0.635427 0.185333,-0.344189 0.185333,-0.555998 0,-0.317713 -0.344189,-0.317713 -0.185333,0 -0.397142,0.07943 -0.264761,0.105905 -0.635426,0.529522 -0.370666,0.423618 -0.582475,0.661903 -0.317713,0.397141 -0.60895,0.873711 -0.264761,0.450094 -0.423617,0.900187 z"
         style="font-weight:bold;font-family:Corinthia;-inkscape-font-specification:'Corinthia, Bold'"
         id="path1314" /><path
         d="m 96.25838,78.609057 q -1.138472,0 -1.879803,-0.503045 -0.714855,-0.529522 -0.714855,-1.747423 0,-0.794283 0.529522,-1.588566 0.555999,-0.820759 1.376758,-1.482662 0.847235,-0.688378 1.747422,-1.08552 0.926664,-0.423618 1.667995,-0.423618 0.423617,0 0.820759,0.158857 0.397142,0.132381 0.397142,0.661903 0,0.238284 -0.211809,0.60895 -0.185333,0.344189 -0.47657,0.635426 -0.291237,0.291237 -0.582474,0.291237 -0.291238,0 -0.291238,-0.344189 0,-0.211809 0.105905,-0.397141 0.105904,-0.185333 0.105904,-0.370666 0,-0.344189 -0.238285,-0.397141 -0.238285,-0.07943 -0.450093,-0.07943 -0.741331,0 -1.42971,0.608951 -0.688378,0.582474 -1.138472,1.403233 -0.423618,0.820759 -0.423618,1.56209 0,1.720947 1.456186,1.720947 1.191424,0 2.144564,-0.450094 0.95314,-0.450094 1.64152,-1.032568 0.71485,-0.60895 1.11199,-1.059044 0.42362,-0.450094 0.50305,-0.450094 0.23829,0 0.23829,0.158857 0,0.105904 -0.0794,0.238285 -0.0265,0.05295 -0.18534,0.238285 -0.13238,0.158856 -0.26476,0.291237 -1.29733,1.2179 -2.647607,2.038659 -1.323805,0.794283 -2.832943,0.794283 z"
         style="font-weight:bold;font-family:Corinthia;-inkscape-font-specification:'Corinthia, Bold'"
         id="path1316" /><path
         d="m 103.43341,78.635534 q -1.05904,0 -1.56209,-0.555999 -0.50304,-0.555998 -0.50304,-1.56209 0,-0.926663 0.42362,-2.038659 0.42361,-1.138473 0.92666,-1.879803 -0.23829,0.02648 -0.50305,0.07943 -0.23828,0.02648 -0.50304,0.02648 -0.42362,0 -0.76781,-0.132381 -0.31771,-0.158856 -0.31771,-0.582474 0,-0.211809 0.18533,-0.291237 0.18533,-0.07943 0.37067,-0.05295 l 1.9857,0.105904 q 0.31772,-0.555998 0.76781,-1.297329 0.47657,-0.767807 1.03257,-1.482661 0.58247,-0.714855 1.24437,-1.164949 0.66191,-0.47657 1.37676,-0.47657 0.15886,0 0.42362,0.05295 0.29124,0.02648 0.37066,0.264761 0.0265,0.05295 0.0265,0.13238 0,0.158857 -0.13238,0.291237 -0.13238,0.105905 -0.26476,0.238285 -0.87371,0.847235 -1.64152,1.667995 -0.74133,0.820759 -1.45618,1.826851 0.52952,0.02648 1.03256,0.02648 0.52953,-0.02648 1.03257,-0.02648 0.26476,0 0.50305,0.05295 0.26476,0.05295 0.29123,0.264761 0,0.158856 -0.42361,0.238285 -0.42362,0.07943 -1.0061,0.13238 -0.58247,0.02648 -1.11199,0.05295 -0.52952,0 -0.71486,0 -0.31771,0.47657 -0.71485,1.217901 -0.37067,0.741331 -0.6619,1.509138 -0.26476,0.767807 -0.26476,1.350281 0,1.297329 1.11199,1.297329 0.76781,0 1.50914,-0.344189 0.74133,-0.34419 1.40323,-0.847236 0.68838,-0.503046 1.19143,-0.979615 0.50304,-0.47657 0.74133,-0.714855 0.1059,-0.105905 0.18533,-0.105905 0.10591,0 0.10591,0.158857 0,0.264761 -0.15886,0.423618 -0.76781,0.767807 -1.668,1.509137 -0.90018,0.714855 -1.8798,1.164949 -0.95314,0.450094 -1.98571,0.450094 z"
         style="font-weight:bold;font-family:Corinthia;-inkscape-font-specification:'Corinthia, Bold'"
         id="path1318" /><path
         d="m 123.81999,78.741438 q -0.6619,0 -1.11199,-0.370665 -0.42362,-0.397142 -0.42362,-1.191425 0,-0.582474 0.15886,-1.376757 0.15885,-0.820759 0.60895,-1.800375 l 1.53561,-3.150656 q 0.79428,-1.641518 1.19142,-2.594658 0.39715,-0.979616 0.47657,-1.244377 0.053,-0.13238 0.053,-0.211809 0,-0.105904 0,-0.211808 0,-0.688379 -0.66191,-1.059044 -0.63542,-0.370666 -1.80037,-0.370666 -2.70056,0 -5.95712,1.588566 -1.61505,0.820759 -2.59466,1.667995 -0.95314,0.847235 -1.50914,1.773898 -0.58247,1.006092 -0.58247,1.667995 0,0.820759 1.13847,0.820759 0.29124,0 0.76781,-0.07943 0.55599,-0.07943 0.7678,-0.07943 0.23829,0 0.23829,0.105905 0,0.105904 -0.29124,0.291237 -0.29124,0.185332 -0.63543,0.264761 -0.34418,0.07943 -0.6619,0.105904 -0.31771,0.02648 -0.60895,0.02648 -1.03257,0 -1.74742,-0.317713 -0.68838,-0.317713 -0.68838,-1.006092 0,-0.582474 0.45009,-1.350281 0.68838,-1.164948 2.11809,-2.303421 1.42971,-1.164948 3.36247,-2.118088 1.95923,-0.953139 3.6537,-1.323805 1.69447,-0.370665 3.30951,-0.370665 1.64152,0 2.56818,0.450093 0.95314,0.423618 0.95314,1.42971 0,1.164948 -1.37675,3.918463 -0.39715,0.794283 -0.87372,1.641518 -0.45009,0.847235 -0.79428,1.56209 -0.95314,2.065136 -0.95314,3.283037 0,0.900187 0.52952,0.900187 0.18534,0 0.37067,-0.07943 1.48266,-0.608951 3.5478,-2.700563 2.06513,-2.091612 4.89808,-6.221883 1.3238,-1.932756 2.32989,-3.203609 1.00609,-1.297328 1.82685,-2.065135 0.84724,-0.767807 1.61505,-1.111997 0.79428,-0.344189 1.66799,-0.397141 h 0.13238 q 0.71485,0 0.71485,0.317713 0,0.211809 -0.39714,0.211809 -0.58247,0 -1.37675,0.503046 -0.37067,0.264761 -1.0061,0.847235 -0.60895,0.582474 -1.42971,1.482662 -1.2179,1.376757 -2.46227,2.885895 -1.2179,1.482661 -2.46228,3.12418 -0.90019,1.191424 -1.7739,2.276944 -0.87371,1.059044 -1.85333,1.985708 -1.53561,1.509138 -2.77999,2.356373 -1.24437,0.820759 -2.17104,0.820759 z"
         style="font-weight:bold;font-family:Corinthia;-inkscape-font-specification:'Corinthia, Bold'"
         id="path1320" /><path
         d="m 138.96434,78.556105 q -0.84723,0 -1.27085,-0.397141 -0.42362,-0.423618 -0.556,-1.059044 -0.1059,-0.635427 -0.0794,-1.270853 -0.39714,0.529522 -0.97961,1.164948 -0.58248,0.608951 -1.27085,1.059044 -0.68838,0.450094 -1.40324,0.450094 -0.52952,0 -0.87371,-0.238285 -0.34419,-0.264761 -0.34419,-0.820759 0,-0.926664 0.58248,-1.959231 0.60895,-1.032568 1.53561,-1.959232 0.92666,-0.95314 1.98571,-1.535614 1.05904,-0.582474 1.9857,-0.582474 0.26477,0 0.74134,0.105904 0.47657,0.105905 0.84723,0.317714 0.39714,0.211808 0.39714,0.582474 0,0.185333 -0.23828,0.211809 -0.23829,0.02648 -0.34419,0.158856 -0.76781,0.926664 -0.76781,2.9918 0,0.264761 0.0265,0.714854 0.0265,0.450094 0.18533,0.794283 0.18533,0.34419 0.556,0.34419 0.556,0 1.19142,-0.47657 0.63543,-0.47657 1.27086,-1.138472 0.63542,-0.688379 1.16494,-1.244377 0.053,-0.07943 0.10591,-0.07943 0.13238,0 0.21181,0.158856 0.1059,0.132381 0,0.238285 -0.63543,0.741331 -1.24438,1.323805 -0.58247,0.582474 -1.2179,1.111996 -1.2179,1.032568 -2.19752,1.032568 z m -4.13027,-1.270853 q 0.60895,-0.344189 1.2179,-1.08552 0.63543,-0.741331 1.19143,-1.69447 0.58247,-0.95314 0.97961,-1.906279 -0.63542,0 -1.42971,0.476569 -0.79428,0.450094 -1.50913,1.164949 -0.71486,0.688378 -1.19143,1.456185 -0.45009,0.741331 -0.45009,1.350281 0,0.503046 0.39714,0.503046 0.29124,0 0.79428,-0.264761 z"
         style="font-weight:bold;font-family:Corinthia;-inkscape-font-specification:'Corinthia, Bold'"
         id="path1322" /><path
         d="m 148.89288,78.556105 q -0.84724,0 -1.27085,-0.397141 -0.42362,-0.423618 -0.556,-1.059044 -0.10591,-0.635427 -0.0794,-1.270853 -0.39714,0.529522 -0.97962,1.164948 -0.58247,0.608951 -1.27085,1.059044 -0.68838,0.450094 -1.40323,0.450094 -0.52952,0 -0.87371,-0.238285 -0.34419,-0.264761 -0.34419,-0.820759 0,-0.926664 0.58247,-1.959231 0.60895,-1.032568 1.53562,-1.959232 0.92666,-0.95314 1.9857,-1.535614 1.05905,-0.582474 1.98571,-0.582474 0.26476,0 0.74133,0.105904 0.47657,0.105905 0.84724,0.317714 0.39714,0.211808 0.39714,0.582474 0,0.185333 -0.23829,0.211809 -0.23828,0.02648 -0.34419,0.158856 -0.7678,0.926664 -0.7678,2.9918 0,0.264761 0.0265,0.714854 0.0265,0.450094 0.18534,0.794283 0.18533,0.34419 0.55599,0.34419 0.556,0 1.19143,-0.47657 0.63542,-0.47657 1.27085,-1.138472 0.63543,-0.688379 1.16495,-1.244377 0.053,-0.07943 0.1059,-0.07943 0.13238,0 0.21181,0.158856 0.10591,0.132381 0,0.238285 -0.63542,0.741331 -1.24437,1.323805 -0.58248,0.582474 -1.2179,1.111996 -1.21791,1.032568 -2.19752,1.032568 z m -4.13027,-1.270853 q 0.60895,-0.344189 1.2179,-1.08552 0.63542,-0.741331 1.19142,-1.69447 0.58248,-0.95314 0.97962,-1.906279 -0.63543,0 -1.42971,0.476569 -0.79428,0.450094 -1.50914,1.164949 -0.71485,0.688378 -1.19142,1.456185 -0.4501,0.741331 -0.4501,1.350281 0,0.503046 0.39714,0.503046 0.29124,0 0.79429,-0.264761 z"
         style="font-weight:bold;font-family:Corinthia;-inkscape-font-specification:'Corinthia, Bold'"
         id="path1324" /><path
         d="m 157.81532,78.66201 q -2.06513,0 -2.06513,-2.065136 0,-0.635427 0.29123,-1.482662 0.31772,-0.873711 0.66191,-1.482662 -1.48267,1.138473 -2.38285,2.171041 -0.90019,1.006092 -1.29733,1.482661 -0.10591,0.105905 -0.26476,0.450094 -0.15886,0.317713 -0.37067,0.60895 -0.21181,0.264761 -0.47657,0.264761 -0.26476,0 -0.37066,-0.211808 -0.10591,-0.211809 -0.10591,-0.423618 0,-0.13238 0.0794,-0.291237 0.34419,-0.60895 0.79428,-1.853327 0.47657,-1.270853 0.76781,-2.568182 0.053,-0.211809 0.0794,-0.344189 0.053,-0.132381 0.13238,-0.291237 0.13238,-0.291237 0.556,-0.47657 0.45009,-0.185333 0.71485,-0.185333 0.13238,0 0.26476,0.07943 0.15886,0.05295 0.15886,0.238285 0,0.132381 -0.15886,0.582475 -0.15885,0.450093 -0.39714,1.006091 -0.21181,0.555998 -0.42362,1.059044 -0.18533,0.47657 -0.26476,0.661903 0.21181,-0.185333 0.66191,-0.60895 0.45009,-0.450094 1.00609,-0.95314 0.58247,-0.529522 1.16495,-1.006092 0.58247,-0.47657 1.03256,-0.794283 0.4501,-0.317713 0.66191,-0.317713 0.37066,0 0.63542,0.185333 0.29124,0.158856 0.29124,0.582474 0,0.185333 -0.29124,0.60895 -0.29123,0.423618 -0.68838,1.006092 -0.39714,0.582474 -0.68837,1.244377 -0.29124,0.661902 -0.29124,1.323805 0,0.47657 0.23828,0.820759 0.26476,0.317713 0.71486,0.317713 0.71485,0 1.37676,-0.317713 0.6619,-0.344189 1.2179,-0.820759 0.55599,-0.47657 0.97961,-0.926664 0.42362,-0.47657 0.6619,-0.741331 0.0265,-0.02648 0.053,-0.02648 0.053,0 0.13238,0.07943 0.0794,0.05295 0.0794,0.185332 0,0.132381 -0.10591,0.238285 -0.60895,0.714855 -1.35028,1.403234 -0.71486,0.688378 -1.56209,1.138472 -0.84724,0.450094 -1.85333,0.450094 z"
         style="font-weight:bold;font-family:Corinthia;-inkscape-font-specification:'Corinthia, Bold'"
         id="path1326" /><path
         d="m 165.89052,71.434034 q -0.39714,0 -0.68838,-0.264761 -0.26476,-0.291237 -0.26476,-0.688379 0,-0.397141 0.26476,-0.688378 0.29124,-0.291237 0.68838,-0.291237 0.39714,0 0.68838,0.291237 0.29124,0.291237 0.29124,0.688378 0,0.397142 -0.29124,0.688379 -0.29124,0.264761 -0.68838,0.264761 z m -1.93276,7.492737 q -0.92666,0 -1.56209,-0.47657 -0.60895,-0.503046 -0.47656,-1.641518 0.053,-0.370666 0.26476,-1.032568 0.2118,-0.688379 0.52952,-1.376758 0.34419,-0.714854 0.74133,-1.2179 0.39714,-0.503046 0.79428,-0.503046 0.31772,0 0.60895,0.211809 0.29124,0.185332 0.29124,0.529522 0,0.185332 -0.26476,0.529522 -0.26476,0.317713 -0.63543,0.820759 -0.34419,0.47657 -0.60895,1.08552 -0.26476,0.582474 -0.26476,1.270853 0,0.635426 0.26476,0.873711 0.29124,0.211809 0.68838,0.211809 0.50305,0 1.08552,-0.264761 0.58247,-0.291237 1.16495,-0.714855 0.34419,-0.238285 1.00609,-0.873711 0.68838,-0.635427 1.58857,-1.615042 0.0529,-0.05295 0.1059,-0.05295 0.21181,0 0.21181,0.291237 0,0.07943 -0.31771,0.450093 -0.31772,0.34419 -0.76781,0.794283 -0.42362,0.450094 -0.82076,0.847236 -0.39714,0.370665 -0.58247,0.503046 -0.66191,0.503045 -1.42971,0.926663 -0.74133,0.423618 -1.61505,0.423618 z"
         style="font-weight:bold;font-family:Corinthia;-inkscape-font-specification:'Corinthia, Bold'"
         id="path1328" /><path
         d="m 163.90482,89.464259 q -0.87371,0 -1.7739,-0.291237 -0.90018,-0.291237 -1.50913,-0.95314 -0.60896,-0.635426 -0.60896,-1.641518 0,-1.138473 0.71486,-2.17104 0.71485,-1.032568 1.90628,-1.90628 1.16495,-0.873711 2.62113,-1.588566 1.42971,-0.714854 2.91237,-1.270853 1.48267,-0.529522 2.80647,-0.873711 1.32381,-0.344189 2.25047,-0.47657 0.18533,-0.635426 0.37066,-1.456185 0.18534,-0.820759 0.34419,-1.641519 0.18534,-0.847235 0.29124,-1.482661 -0.31771,0.582474 -0.82076,1.350281 -0.50304,0.767807 -1.13847,1.456185 -0.63543,0.688379 -1.29733,1.164949 -0.63543,0.450094 -1.24438,0.450094 -0.71485,0 -0.97961,-0.503046 -0.23829,-0.529522 -0.23829,-1.138473 0,-0.450093 0.18534,-1.059044 0.2118,-0.60895 0.52952,-1.164948 0.34419,-0.582474 0.79428,-0.95314 0.47657,-0.397141 0.97962,-0.397141 0.15885,0 0.39714,0.07943 0.26476,0.07943 0.26476,0.291237 0,0.105905 -0.26476,0.450094 -0.23829,0.344189 -0.556,0.794283 -0.31771,0.450094 -0.58247,0.926663 -0.23829,0.450094 -0.23829,0.847236 0,0.211808 0.0529,0.450093 0.053,0.238285 0.34419,0.238285 0.4501,0 1.2179,-0.714854 0.76781,-0.714855 1.58857,-1.879804 0.82076,-1.191424 1.42971,-2.621134 0.0529,-0.317713 0.39714,-0.397141 0.34419,-0.105905 0.60895,-0.105905 0.15886,0 0.45009,0.07943 0.31772,0.07943 0.31772,0.291237 0,0.397141 -0.18534,1.297329 -0.18533,0.900187 -0.45009,1.959231 -0.26476,1.032568 -0.52952,1.959232 -0.23829,0.926663 -0.37067,1.403233 0.26476,0 0.68838,0.05295 0.4501,0.02648 0.79429,0.185333 0.34418,0.158857 0.34418,0.529522 0,0.132381 -0.0794,0.132381 -0.0265,0 -0.0794,-0.02648 -0.0529,0 -0.13238,0 -0.52952,-0.264761 -1.13848,-0.264761 -0.13238,0 -0.26476,0 -0.13238,0 -0.26476,0.02648 -0.556,1.773898 -1.53561,3.627225 -0.97962,1.879804 -2.35637,3.441894 -1.37676,1.562089 -3.12418,2.515229 -1.72095,0.979616 -3.83904,0.979615 z m 0.29124,-0.555998 q 1.45618,0 2.70056,-0.635427 1.24438,-0.635426 2.25047,-1.69447 1.03257,-1.059044 1.82685,-2.356373 0.79428,-1.297329 1.35028,-2.674086 0.556,-1.376758 0.84724,-2.621134 -0.79429,0.105904 -1.98571,0.423617 -1.16495,0.34419 -2.48875,0.847236 -1.32381,0.529522 -2.62114,1.191424 -1.29733,0.661903 -2.35637,1.456186 -1.05905,0.820759 -1.69447,1.720946 -0.63543,0.900188 -0.63543,1.879803 v 0.423618 q 0,0.635426 0.4501,1.08552 0.42361,0.47657 1.08552,0.714855 0.63542,0.238285 1.27085,0.238285 z"
         style="font-weight:bold;font-family:Corinthia;-inkscape-font-specification:'Corinthia, Bold'"
         id="path1330" /></g></g></svg>
